<?xml version="1.0" encoding="UTF-8"?>
<svg width="71px" height="270px" viewBox="0 0 71 270" version="1.1" xmlns="http://www.w3.org/2000/svg" xmlns:xlink="http://www.w3.org/1999/xlink">
    <!-- Generator: Sketch 49.2 (51160) - http://www.bohemiancoding.com/sketch -->
    <title>Group</title>
    <desc>Created with Sketch.</desc>
    <defs></defs>
    <g id="Page-1" stroke="none" stroke-width="1" fill="none" fill-rule="evenodd">
        <g id="iPhone-X" transform="translate(-370.000000, -53.000000)">
            <g id="Group" transform="translate(370.000000, 53.000000)">
                <!--Left foot-->
                <path d="M7.1033,267.4454 C4.9113,267.1874 3.3263,266.9304 2.4083,266.0654 C1.4703,265.1924 1.5873,262.6894 2.4083,260.7114 C3.2083,258.7074 5.3763,256.9034 6.8433,255.5844 C8.2893,254.2794 10.9023,250.3484 10.9023,250.3484 L25.2553,253.5364 L28.1523,253.5984 C28.1523,253.5984 27.8993,257.1744 27.8993,257.7024 C27.8993,258.2524 24.3263,259.1704 21.8663,260.3664 C19.4163,261.5544 19.1473,263.8644 16.1893,265.6024 C13.1893,267.3184 8.6143,267.6424 7.1033,267.4454" id="Fill-1" fill="#00203F"></path>
                <!--Right foot-->
                <path d="M65.1956,269.1836 C68.3156,268.7946 70.8946,267.2536 71.0126,265.7856 C71.1326,264.3406 70.5246,262.6886 69.4026,261.0986 C68.2586,259.4836 65.5686,258.9326 63.8186,257.2656 C62.8366,256.3296 61.4856,255.0986 61.4856,255.0986 C61.4856,255.0986 55.9856,253.7656 53.9856,253.9326 C51.9856,254.0986 44.4856,256.3486 44.4856,256.3486 C44.4856,256.3486 44.1286,257.3136 44.1286,258.2966 C44.1286,259.2876 47.9826,260.4316 49.6776,262.0826 C51.4156,263.7466 53.5296,266.1526 55.9046,267.5026 C58.2886,268.8386 62.4666,269.5066 65.1956,269.1836" id="Fill-3" fill="#00203F"></path>
                <!--Shirt-->
                <path d="M65.194,138.5571 C65.194,138.5571 61.569,139.3071 51.944,139.0571 C40.656,138.7641 39.231,138.6981 29.679,139.4651 C20.161,140.2751 18.072,139.1261 14.694,138.9321 C11.327,138.7271 8.819,139.1821 8.819,139.1821 C8.819,139.1821 8.83,125.9751 9.228,121.9811 C9.616,118.0201 9.822,111.8691 9.228,108.8691 C8.614,105.9131 9.616,100.3451 9.228,96.7621 C8.83,93.1791 10.027,76.6891 10.027,76.6891 L0.077,76.1691 C0.077,76.1691 1.47,69.3391 2.463,60.3801 C3.444,51.4561 4.87,46.8691 10.61,45.1001 C16.372,43.2961 27.759,41.0631 37.244,40.5231 C46.721,39.9951 64.267,40.1351 66.846,45.4891 C69.438,50.8731 70.624,59.7881 70.624,63.9741 L70.624,78.6741 L61.084,77.8851 C61.084,77.8851 61.883,100.7311 62.466,104.1091 C63.082,107.4871 64.462,117.0291 64.667,120.7961 C64.851,124.5821 65.194,138.5571 65.194,138.5571" id="Fill-6" fill="#F1F1F1"></path>
                <!--Head-->
                <path d="M46.6628,40.3383 C46.6628,40.3383 46.1708,43.9773 42.3388,45.1743 C38.5178,46.3733 37.4278,46.8683 32.6898,45.9733 C27.8988,45.0233 25.9028,41.7223 25.9028,41.7223 C25.9028,41.7223 28.0388,41.1713 28.4388,39.9953 C28.8268,38.7963 28.6868,34.1563 28.6868,34.1563 C28.6868,34.1563 26.9188,32.9813 25.8108,30.9413 C25.0188,29.4823 24.5278,27.4273 24.4028,26.5103 C24.0588,26.7353 23.3188,26.4273 22.6938,26.1353 C22.0238,25.8233 21.1318,23.8273 21.1318,22.5103 C21.1318,21.1833 20.7688,18.5853 21.4028,17.9253 C22.1318,17.1673 23.3508,18.1353 23.3508,18.1353 L25.6438,7.8033 L36.2508,5.9453 L45.5218,7.1443 L49.4938,18.2713 C49.4938,18.2713 51.3498,18.2713 51.0898,20.2453 C50.8108,22.2543 50.2478,24.8573 49.6938,25.8073 C49.1408,26.7573 47.9438,26.8693 47.9438,26.8693 C47.9438,26.8693 47.6618,28.5683 47.4438,29.4733 C46.6528,32.7653 44.5688,34.0653 44.5688,34.0653 C44.5688,34.0653 44.3418,38.0283 45.1938,39.4943 C45.7408,40.4363 46.6628,40.3383 46.6628,40.3383" id="Fill-8" fill="#FFB19C"></path>
                <!--Hair-->
                <path d="M48.3253,21.5577 C48.3253,21.5577 48.8003,18.0537 49.6103,18.2657 C50.5693,18.5157 50.7803,15.9707 50.8193,14.5257 C50.8813,12.1817 49.7173,6.7057 46.3193,3.6407 C42.4853,0.1817 38.1203,-0.0003 35.0653,-0.0003 C31.9993,-0.0003 25.6273,2.5717 23.5273,6.5157 C22.0033,9.3767 21.4033,12.7117 21.4033,13.8997 C21.4033,15.0987 21.3243,15.9917 21.4033,16.8577 C21.5273,18.2187 22.7873,17.2607 23.4753,18.2917 C23.6183,18.5067 23.8193,22.4797 23.8193,22.4797 L25.0373,20.2917 C25.0373,20.2917 24.8523,18.7527 24.9183,17.6687 C25.0323,15.7887 25.1153,13.6207 25.1153,13.6207 C25.1153,13.6207 25.2543,9.7997 27.7593,8.8707 C30.2943,7.9437 32.1523,7.3907 35.5713,7.4147 C38.9153,7.4387 42.1983,7.9437 43.6663,8.8707 C45.1333,9.7997 46.1703,11.1267 46.7213,12.3237 C47.2383,13.5107 47.4083,20.9117 47.4083,20.9117 L48.3253,21.5577 Z" id="Fill-10" fill="#00203F"></path>
                <!--Left arm-->
                <path d="M44.4024,77.8488 C44.4024,77.8488 42.6274,79.1388 39.1524,81.0988 C33.0134,84.5608 28.4074,87.9398 25.6944,89.0568 C21.4474,90.8058 19.5694,91.8488 19.5694,91.8488 C19.5694,91.8488 12.0694,90.6818 8.1604,89.2808 C4.9734,88.1388 3.2434,86.7008 2.0524,85.4298 C-0.5976,82.5988 0.0764,76.1688 0.0764,76.1688 C0.0764,76.1688 1.4854,73.6818 4.5874,72.9968 C6.6274,72.5458 9.4874,73.9028 9.4874,73.9028 L10.9024,74.9948 C10.9024,74.9948 20.0334,75.1748 27.3194,75.4318 C34.5924,75.6918 44.4024,77.8488 44.4024,77.8488" id="Fill-13" fill="#FFB19C"></path>
                <!--Right arm-->
                <path d="M64.8506,74.1843 C64.8506,74.1843 69.1036,76.4293 69.2326,78.2743 C69.3616,80.1193 68.0446,85.0193 65.5206,87.9343 C62.9946,90.8573 63.7936,90.9973 57.4376,92.1963 C51.0906,93.3733 48.1776,94.4303 39.9546,94.7003 C31.7396,94.9693 29.5586,94.6163 27.1526,94.2653 C23.1526,93.6823 18.4026,91.4323 18.4026,91.4323 C18.4026,91.4323 30.5686,86.6403 36.5686,81.7653 C41.2246,77.9833 48.2356,76.7653 48.2356,76.7653 C48.2356,76.7653 54.5446,75.7583 54.9326,75.2193 C55.3326,74.7013 56.7886,73.6343 58.7656,73.6343 C60.7496,73.6343 63.6216,73.4183 64.8506,74.1843" id="Fill-16" fill="#FFB19C"></path>
                <!--Legs-->
                <path d="M8.9264,138.7857 C8.9264,138.7857 8.1274,143.8467 8.4314,148.1307 C8.7214,152.4037 9.4064,167.1587 9.9024,171.4317 C10.4004,175.7057 12.0034,187.1887 11.5054,190.9527 C11.0094,194.7217 10.1144,206.2457 10.0274,211.5127 C9.9204,216.7877 10.2974,233.8627 10.0274,236.2477 C9.7144,238.6227 10.4264,242.7977 11.6774,244.1997 C12.8874,245.5927 14.0864,247.0957 12.8004,247.8807 C11.5054,248.6807 10.3814,250.8067 10.3814,250.8067 C10.3814,250.8067 17.1904,251.9377 21.0484,253.2237 C22.5484,253.7237 24.8304,253.8067 25.7144,253.8067 C26.6014,253.8067 28.1314,253.8907 28.1314,253.8907 C28.1314,253.8907 28.6874,240.7067 28.6874,232.6757 C28.6874,224.6357 29.3814,216.9837 29.2854,212.9137 C29.2194,208.8437 29.6084,201.2807 30.5694,197.5987 C31.5954,193.9437 34.1594,176.8487 34.3644,174.6587 C34.5564,172.4657 35.5504,159.6577 36.8444,159.4527 C38.1394,159.2687 40.0284,168.2917 40.4174,170.5887 C40.8054,172.8767 41.9544,183.0267 42.5694,186.0987 C43.4024,190.2657 45.6724,201.4857 45.6724,204.8667 C45.6724,208.2327 45.0784,222.5437 44.9714,224.7227 C44.8754,226.9017 44.8754,240.9207 44.7884,243.2827 C44.6924,245.7017 44.3884,251.2617 44.3884,251.6457 C44.3884,252.0557 44.3834,256.6767 44.3834,256.6767 C44.3834,256.6767 50.7244,255.4207 52.9034,254.5477 C55.0934,253.6527 61.6944,255.9317 61.6944,255.9317 C61.6944,255.9317 62.0284,253.7527 61.8814,252.4947 C61.7794,251.6237 61.1104,249.1467 61.1944,248.7447 C61.6944,246.3277 64.0694,237.5957 64.0694,234.3067 C64.0694,231.0367 65.1734,211.7927 64.7764,206.6347 C64.3764,201.4857 65.0694,188.7657 64.9264,184.0997 C64.8034,180.0457 64.6974,170.9937 64.9024,167.4317 C65.0964,163.8487 65.8654,156.2777 65.9614,151.6047 C66.0604,146.9427 65.1944,136.9317 65.1944,136.9317 L8.9264,138.7857 Z" id="Fill-18" fill="#00203F"></path>
                <!--Right arm stripe-->
                <path d="M68.735,50.8732 C67.667,49.8162 66.091,48.8772 63.933,48.8772 C59.151,48.8772 54.662,54.4452 54.662,54.4452 L54.662,57.6072 C54.662,57.6072 58.569,54.0992 63.902,53.9322 C67.904,53.8072 68.704,56.1502 70.106,57.7902 C69.805,55.5572 69.351,53.1612 68.735,50.8732" id="Fill-20" fill="#DF2000"></path>
                <!--Left arm stripe-->
                <path d="M8.3654,52.9781 C6.4224,52.6961 4.7274,53.2681 3.4434,53.9801 C3.1314,55.4391 2.8714,57.0351 2.6464,58.8581 C4.0374,57.9111 4.9024,56.7651 7.5694,57.2651 C11.3774,57.9791 14.7724,61.6901 14.7724,61.6901 L14.7724,57.7181 C14.7724,57.7181 12.9204,53.6461 8.3654,52.9781" id="Fill-22" fill="#DF2000"></path>
            </g>
        </g>
    </g>
</svg>